<?xml version="1.0" encoding="utf-8"?>
<!-- Generator: Adobe Illustrator 16.0.0, SVG Export Plug-In . SVG Version: 6.00 Build 0)  -->
<!DOCTYPE svg PUBLIC "-//W3C//DTD SVG 1.1//EN" "http://www.w3.org/Graphics/SVG/1.1/DTD/svg11.dtd">
<svg version="1.1" id="Capa_1" xmlns="http://www.w3.org/2000/svg" xmlns:xlink="http://www.w3.org/1999/xlink" x="0px" y="0px"
	 width="477.621px" height="473.167px" viewBox="16.879 0 477.621 473.167" enable-background="new 16.879 0 477.621 473.167"
	 xml:space="preserve">
<image display="none" overflow="visible" width="26" height="29" xlink:href="filter.png"  transform="matrix(13.8735 0 0 13.8735 693.5469 0.0078)">
</image>
<image display="none" overflow="visible" width="50" height="50" xlink:href="add_inform.png"  transform="matrix(3.2204 0 0 3.2204 190.3594 142.3516)">
</image>
<g opacity="0.1">
	<image overflow="visible" width="519" height="519" xlink:href="79B4458.png"  transform="matrix(1 0 0 1 -0.5 -18.5)">
	</image>
</g>
<circle fill="#1E96F5" cx="242.33" cy="223.963" r="222.961"/>
<g opacity="0.15">
	<image overflow="visible" width="101" height="287" xlink:href="79B4446.png"  transform="matrix(1 0 0 1 202.5 89.5)">
	</image>
</g>
<g opacity="0.15">
	<image overflow="visible" width="287" height="101" xlink:href="79B4447.png"  transform="matrix(1 0 0 1 109.5 182.5)">
	</image>
</g>
<path fill="#FFFFFF" d="M259.013,317.904c0,7.701-6.244,13.943-13.944,13.943l0,0c-7.7,0-13.941-6.242-13.941-13.943V131.473
	c0-7.7,6.241-13.942,13.941-13.942l0,0c7.7,0,13.944,6.242,13.944,13.942V317.904z"/>
<path fill="#FFFFFF" d="M338.286,210.745c7.697,0,13.941,6.244,13.941,13.944l0,0c0,7.7-6.244,13.941-13.941,13.941H151.853
	c-7.7,0-13.943-6.241-13.943-13.941l0,0c0-7.7,6.243-13.944,13.943-13.944H338.286z"/>
</svg>
