<?xml version="1.0" encoding="utf-8"?>
<!-- Generator: Adobe Illustrator 16.0.0, SVG Export Plug-In . SVG Version: 6.00 Build 0)  -->
<!DOCTYPE svg PUBLIC "-//W3C//DTD SVG 1.1//EN" "http://www.w3.org/Graphics/SVG/1.1/DTD/svg11.dtd">
<svg version="1.1" id="Слой_1" xmlns="http://www.w3.org/2000/svg" xmlns:xlink="http://www.w3.org/1999/xlink" x="0px" y="0px"
	 width="354.097px" height="342.505px" viewBox="0 0 354.097 342.505" enable-background="new 0 0 354.097 342.505"
	 xml:space="preserve">
<path fill="#ED145B" d="M343.045,318.854c5.367,5.367,6.119,13.317,1.681,17.756l0,0c-4.44,4.44-12.388,3.688-17.757-1.682
	L13.939,21.9c-5.366-5.366-6.118-13.316-1.68-17.755l0,0c4.44-4.439,12.391-3.687,17.756,1.68L343.045,318.854z"/>
<path fill="#ED145B" d="M30.017,334.931c-5.368,5.367-13.318,6.118-17.756,1.68l0,0c-4.44-4.44-3.688-12.388,1.681-17.756
	L326.971,5.824c5.367-5.366,13.316-6.118,17.755-1.68l0,0c4.439,4.44,3.687,12.391-1.68,17.756L30.017,334.931z"/>
</svg>
