<?xml version="1.0" encoding="utf-8"?>
<!-- Generator: Adobe Illustrator 16.0.0, SVG Export Plug-In . SVG Version: 6.00 Build 0)  -->
<!DOCTYPE svg PUBLIC "-//W3C//DTD SVG 1.1//EN" "http://www.w3.org/Graphics/SVG/1.1/DTD/svg11.dtd">
<svg version="1.1" id="Capa_1" xmlns="http://www.w3.org/2000/svg" xmlns:xlink="http://www.w3.org/1999/xlink" x="0px" y="0px"
	 width="559.999px" height="495.326px" viewBox="200 32.339 559.999 495.326" enable-background="new 200 32.339 559.999 495.326"
	 xml:space="preserve">
<g>
	<g>
		<path fill="#9E2222" d="M733.304,193.874c11.675-20.981,3.123-47.541-10.707-62.599c7.477-9.909,16.263-82.564-65.591-82.564
			H438.067c-15.205,0-26.862,7.537-36.295,13.526c-2.477,1.592-7.928,1.185-7.928,1.185v-7.495
			c0-13.011-10.578-23.588-23.588-23.588H223.545c-12.213,0-22.552,9.545-23.523,21.715L200,279.8
			c0,13.809,11.159,25.028,25.032,25.028h163.34c4.372,0,8.574-1.205,12.277-3.447c15.487,6.592,66.584,92.128,81.403,124.676
			c-0.13,14.434-1.466,68.522-1.466,68.522c-0.127,5.451,3.039,25.224,34.035,31.858c23.975,5.105,47.797-6.809,52.516-15.596
			c1.119-2.021,26.988-51.414,29.703-91.998c0.281-4.285-6.83-49.67-11.74-77.049l129.287,0.087
			c49.136,0,57.901-57.126,29.533-85.366C758.032,229.479,742.264,203.372,733.304,193.874z M365.217,281.266H223.501V55.971
			h141.715V281.266z M710.579,318.229H556.195c5.924,23.653,16.953,99.045,16.953,99.045c-2.499,36.6-26.989,82.522-26.989,82.522
			c-29.101,12.256-42.133-4.546-42.133-4.546s1.466-58.157,1.466-71.601c0-13.444-66.476-120.864-82.717-134.716
			c-8.595-7.303-24.061-17.426-36.642-25.224V90.291h10.093c11.567,0,25.891-17.92,41.617-17.92l222.688,0.086
			c44.743,0,51.895,50.403,22.361,55.252l1.335,5.556c28.328,3.058,45.581,47.818,9.415,57.018l1.336,5.577
			c27.058,2.819,47.133,46.291,9.415,57.017l1.336,5.578C741.271,264.031,748.509,318.186,710.579,318.229z"/>
	</g>
</g>
</svg>
