<?xml version="1.0" encoding="utf-8"?>
<!-- Generator: Adobe Illustrator 16.0.0, SVG Export Plug-In . SVG Version: 6.00 Build 0)  -->
<!DOCTYPE svg PUBLIC "-//W3C//DTD SVG 1.1//EN" "http://www.w3.org/Graphics/SVG/1.1/DTD/svg11.dtd">
<svg version="1.1" id="Слой_1" xmlns="http://www.w3.org/2000/svg" xmlns:xlink="http://www.w3.org/1999/xlink" x="0px" y="0px"
	 width="403px" height="397.379px" viewBox="0 0 403 397.379" enable-background="new 0 0 403 397.379" xml:space="preserve">
<path fill="#C2C2C2" d="M395.431,199.363c0,107.882-87.451,195.334-195.333,195.334c-107.883,0-195.333-87.452-195.333-195.334
	C4.766,91.481,92.215,4.031,200.098,4.031C307.98,4.031,395.431,91.481,395.431,199.363z"/>
<path fill="#FFFFFF" d="M140.021,286.207c-4.525,4.545-6.454,9.932-16.347,0.021l0,0c-9.893-9.878-4.525-11.822,0.007-16.353
	l147.088-147.09c4.52-4.518,6.46-9.886,16.354,0l0,0c9.886,9.893,4.513,11.829,0,16.347L140.021,286.207z"/>
<path fill="#FFFFFF" d="M287.083,269.888c4.546,4.524,9.926,6.461,0.027,16.358l0,0c-9.893,9.878-11.835,4.513-16.367-0.019
	l-147.089-147.09c-4.513-4.512-9.88-6.454,0-16.346l0,0c9.893-9.893,11.834-4.513,16.345,0L287.083,269.888z"/>
</svg>
