<?xml version="1.0" encoding="utf-8"?>
<!-- Generator: Adobe Illustrator 16.0.0, SVG Export Plug-In . SVG Version: 6.00 Build 0)  -->
<!DOCTYPE svg PUBLIC "-//W3C//DTD SVG 1.1//EN" "http://www.w3.org/Graphics/SVG/1.1/DTD/svg11.dtd">
<svg version="1.1" id="Capa_1" xmlns="http://www.w3.org/2000/svg" xmlns:xlink="http://www.w3.org/1999/xlink" x="0px" y="0px"
	 width="573px" height="547.984px" viewBox="194.5 0 573 547.984" enable-background="new 194.5 0 573 547.984"
	 xml:space="preserve">
<g>
	<g>
		<g>
			<path d="M719.494,52.587c-26.163-26.164-60.947-40.571-97.948-40.571c-36.999,0-71.785,14.407-97.946,40.571
				c-26.163,26.164-40.572,60.946-40.572,97.949c0,36.999,14.409,71.783,40.572,97.946c26.163,26.163,60.947,40.573,97.946,40.573
				c37,0,71.786-14.41,97.948-40.573C773.502,194.474,773.502,106.596,719.494,52.587z M697.5,226.488
				c-20.287,20.29-47.264,31.462-75.954,31.462c-28.691,0-55.664-11.173-75.951-31.462c-20.289-20.288-31.462-47.261-31.462-75.952
				c0-28.69,11.173-55.667,31.462-75.954c20.287-20.288,47.261-31.461,75.951-31.461c28.691,0,55.667,11.173,75.954,31.461
				C739.38,116.46,739.38,184.607,697.5,226.488z"/>
			<path d="M530.699,430.297c-21.23-14.97-46.446-26.016-73.889-32.644c25.452-22.045,41.968-57.311,41.968-96.979
				c0-66.632-46.595-120.841-103.869-120.841c-57.271,0-103.867,54.208-103.867,120.841c0,39.669,16.516,74.935,41.968,96.981
				c-27.44,6.624-52.656,17.671-73.887,32.641C220.997,457.18,200,493.451,200,532.433c0,8.589,6.963,15.552,15.552,15.552h358.717
				c8.59,0,15.552-6.963,15.552-15.552C589.821,493.451,568.824,457.18,530.699,430.297z M498.778,516.881v-27.775
				c0-8.589-6.963-15.552-15.552-15.552c-8.588,0-15.552,6.963-15.552,15.552v27.775H322.147v-27.775
				c0-8.589-6.963-15.552-15.552-15.552s-15.552,6.963-15.552,15.552v27.775H232.73c4.803-22.805,20.121-44.101,44.317-61.161
				c31.279-22.055,73.138-34.2,117.865-34.2c44.728,0,86.586,12.144,117.863,34.2c24.196,17.061,39.514,38.355,44.314,61.161
				H498.778z M322.147,300.676c0-49.481,32.642-89.737,72.763-89.737c40.123,0,72.765,40.258,72.765,89.737
				c0,49.483-32.642,89.739-72.763,89.739C354.792,390.415,322.147,350.158,322.147,300.676z"/>
		</g>
	</g>
</g>
<text transform="matrix(1 0 0 1 548.3828 236.7793)" font-family="'OpenSans-Semibold'" font-size="254.4807">1</text>
</svg>
